<svg height="512" viewBox="0 0 569 512" width="569" xmlns="http://www.w3.org/2000/svg"><g fill="#58c4dc"><path d="m285.5 201c-30.099519 0-54.5 24.400481-54.5 54.5s24.400481 54.5 54.5 54.5 54.5-24.400481 54.5-54.5-24.400481-54.5-54.5-54.5"/><path d="m568.959856 255.99437c0-42.786714-39.622054-80.31293-102.708233-105.009156.843022-5.561671 1.605757-11.063107 2.1477-16.464151 6.222308-61.4795485-8.5908-105.8524426-41.689467-124.9669201-37.032771-21.3833177-89.340306-5.86284392-142.229928 36.4620705-52.889622-42.32491442-105.197157-57.8453882-142.229928-36.4620705-33.098667 19.1144775-47.9117751 63.4873716-41.689467 124.9669201.541943 5.401044 1.284606 10.922558 2.1477 16.504307-5.2588539 2.007823-10.4173483 4.136116-15.3751231 6.3648-56.3219275 25.318651-87.3331099 60.375245-87.3331099 98.6042 0 42.786714 39.6220545 80.312931 102.708233 105.009157-.863094 5.56167-1.605757 11.063106-2.1477 16.464151-6.2223081 61.479548 8.5908 105.852442 41.689467 124.966919 11.379683 6.452981 24.27439 9.752174 37.353923 9.557239 31.352405 0 67.963666-16.504307 104.876005-46.019309 36.892268 29.515002 73.5236 46.019309 104.916149 46.019309 13.079188.19202 25.973143-3.10698 37.353923-9.557239 33.098667-19.114477 47.911775-63.487371 41.689467-124.966919-.541943-5.401045-1.304678-10.902481-2.1477-16.464151 63.086179-24.65607 102.708233-62.242521 102.708233-105.009157m-179.844786-228.8918518c8.40994-.2029122 16.722625 1.834332 24.086355 5.9030004 22.982397 13.2717118 33.299386 49.2719829 28.281396 98.7648264-.341224 3.373143-.742663 6.786443-1.22439 10.21982-26.231653-7.902125-53.092804-13.538011-80.287851-16.845637-16.485703-21.920473-34.8182-42.3880805-54.796458-61.1783747 31.372477-24.254505 60.818047-36.8636351 83.920876-36.8636351m-10.778644 283.1030798c-10.151586 17.625135-21.205872 34.714367-33.118739 51.199493-20.19271 2.074906-40.478941 3.106959-60.777903 3.092208-20.292267.014061-40.571781-1.017991-60.757831-3.092208-11.881111-16.48571-22.901955-33.575031-33.018379-51.199493-10.151053-17.576313-19.376672-35.671411-27.639093-54.211228 8.262421-18.539816 17.48804-36.634915 27.639093-54.211228 10.100475-17.553775 21.087353-34.582055 32.918019-51.018789 20.222971-2.126263 40.543894-3.185185 60.878263-3.172476 20.292218-.012152 40.571631 1.019895 60.757831 3.092163 11.871289 16.46203 22.898335 33.517072 33.038451 51.099102 10.143208 17.580576 19.368615 35.675261 27.639093 54.211228-8.270478 18.535967-17.495885 36.630652-27.639093 54.211228m41.448603-20.078232c6.370347 17.37617 11.600172 35.149717 15.656131 53.207316-17.601311 5.488953-35.544151 9.815092-53.712572 12.95046 6.904755-10.41391 13.595409-21.249463 20.071962-32.506659 6.402957-11.12334 12.404473-22.347072 18.064767-33.570804m-173.44183 100.170302c12.484761.762973 25.230457 1.204694 38.136729 1.204694s25.732256-.441721 38.237089-1.204694c-11.856446 14.205437-24.629429 27.619582-38.237089 40.156465-13.578357-12.534898-26.31808-25.949321-38.136729-40.156465zm-59.051715-34.132995c-18.17427-3.12134-36.12383-7.434068-53.732644-12.910304 4.039637-18.029033 9.24931-35.775624 15.595915-53.127003 5.580006 11.223732 11.561451 22.447464 18.064767 33.570804 6.503316 11.123341 13.227423 22.086056 20.071962 32.506659m-38.136729-134.524158c-6.323873-17.287046-11.52004-34.966239-15.555771-52.926222 17.565124-5.482384 35.466597-9.821661 53.592141-12.990616-6.864612 10.380446-13.588719 21.142379-20.071963 32.366111s-12.404473 22.306916-18.064767 33.550727m173.54219-100.170303c-12.484761-.762973-25.230457-1.204694-38.237089-1.204694-12.899581 0-25.611824.401565-38.136729 1.204694 11.818649-14.207144 24.558372-27.6215673 38.136729-40.1564653 13.612842 12.531612 26.386159 25.9461083 38.237089 40.1564653zm79.083533 66.619576c-6.503315-11.270581-13.227423-22.112827-20.172322-32.526737 18.216356 3.135529 36.206356 7.468429 53.853076 12.970538-4.048981 18.026615-9.258478 35.772606-15.595915 53.127004-5.580006-11.223732-11.581523-22.447464-18.064767-33.550727m-274.203083-56.439912c-5.078206-49.4727651 5.298999-85.4931144 28.261324-98.7648262 7.366196-4.0623494 15.677148-6.0991686 24.086355-5.9030004 23.102829 0 52.548399 12.6091301 83.920876 36.8636352-19.991601 18.8036418-38.337436 39.2845804-54.836602 61.2185314-27.187441 3.323262-54.045582 8.938367-80.287851 16.785402-.461655-3.433377-.883166-6.826599-1.204318-10.199742m-29.0039857 50.316051c3.0910827-1.338549 6.2423807-2.677098 9.4538947-4.015646 6.31366 26.64484 14.874921 52.706072 25.591752 77.903542-10.737095 25.246946-19.305328 51.362693-25.611824 78.064169-51.1433613-20.981753-80.7896503-50.055034-80.7896503-78.064169 0-26.543423 26.0935516-53.468333 71.3558276-73.887896zm57.3255257 296.856669c-22.962325-13.271711-33.33953-49.292061-28.261324-98.764826.321152-3.373143.742663-6.766364 1.204318-10.21982 26.232189 7.90002 53.093158 13.535868 80.287851 16.845637 16.490947 21.928585 34.822973 42.4091 54.796458 61.218531-43.736806 33.791666-83.700084 44.935085-107.967087 30.920478m285.664174-98.764826c5.01799 49.492844-5.298999 85.493115-28.281396 98.764826-24.246931 14.054763-64.230281 2.871188-107.947016-30.920478 19.966883-18.809928 38.2922-39.29045 54.776387-61.218531 27.195047-3.307626 54.056198-8.943512 80.287851-16.845637.481727 3.453456.883166 6.846677 1.22439 10.21982m19.630379-46.179935c-6.324322-26.685859-14.898994-52.787333-25.631896-78.024012 10.728205-25.250289 19.296186-51.365269 25.611824-78.064168 51.043001 20.981753 80.769578 50.055034 80.769578 78.064168 0 28.009135-29.646289 57.082416-80.78965 78.064169"/></g></svg>